<svg xmlns="http://www.w3.org/2000/svg" viewBox="0 0 1200 630" width="1200" height="630"><defs><linearGradient id="g" x1="0" y1="0" x2="1" y2="1"><stop offset="0" stop-color="#ff3ea5"/><stop offset=".33" stop-color="#ffd23f"/><stop offset=".66" stop-color="#3fa7ff"/><stop offset="1" stop-color="#8a2be2"/></linearGradient></defs><rect width="1200" height="630" fill="#222222"/><path fill="url(#g)" transform="translate(600 330) scale(0.20574 -0.20574) translate(-2166.0 -285.0)" d="M76 0V722H152V456H190V380H152V152H190V76H152V0ZM190 38V76H380V114H418V152H456V380H418V418H380V456H190V494H228V532H418V494H456V456H494V380H532V152H494V76H456V38H418V0H228V38ZM646 76V152H608V380H646V456H684V494H722V532H950V494H988V456H1026V380H1064V152H1026V76H988V38H950V0H722V38H684V76ZM912 76V114H950V152H988V380H950V418H912V456H760V418H722V380H684V152H722V114H760V76ZM1178 0V532H1254V456H1292V418H1254V0ZM1520 0V418H1482V456H1292V494H1330V532H1520V494H1558V456H1596V0ZM1786 114V152H1748V418H1786V456H1824V494H1862V532H2052V494H2090V456H1900V418H1862V380H1824V190H1862V152H1900V114H2090V76H2052V38H1862V76H1824V114ZM1748 -76V0H1824V-38H1862V-76H2090V-38H2128V114H2090V190H2128V380H2090V456H2128V532H2204V-76H2166V-114H2090V-152H1862V-114H1786V-76ZM2318 0V76H2432V646H2318V722H2432V684H2470V646H2508V76H2622V0ZM2774 380V304H3078V380H3040V418H3002V456H2850V418H2812V380ZM2736 76V152H2698V380H2736V456H2774V494H2812V532H3040V494H3078V456H3116V380H3154V228H2774V152H2812V114H2850V76H3040V114H3078V152H3154V76H3116V38H3040V0H2812V38H2774V76ZM3230 0V114H3344V0ZM3420 0V76H3534V456H3420V532H3610V76H3724V0ZM3534 608V722H3610V608ZM3838 76V152H3800V380H3838V456H3876V494H3914V532H4142V494H4180V456H4218V380H4256V152H4218V76H4180V38H4142V0H3914V38H3876V76ZM4104 76V114H4142V152H4180V380H4142V418H4104V456H3952V418H3914V380H3876V152H3914V114H3952V76Z"/></svg>
